HIERARCHY
ROOT Hips
{
  OFFSET 5.84602e-005 68.8428 3.50346
  CHANNELS 6 Xposition Yposition Zposition Zrotation Xrotation Yrotation
  JOINT Spine
  {
    OFFSET 0 8.597 -4.6522
    CHANNELS 3 Zrotation Xrotation Yrotation
    JOINT Spine1
    {
      OFFSET 0 7.8454 0.4098
      CHANNELS 3 Zrotation Xrotation Yrotation
      JOINT Spine2
      {
        OFFSET 0 9.7078 -2.1609
        CHANNELS 3 Zrotation Xrotation Yrotation
        JOINT Neck
        {
          OFFSET 0 21.8761 -0.4549
          CHANNELS 3 Zrotation Xrotation Yrotation
          JOINT Head
          {
            OFFSET 0 12.3537 3.3602
            CHANNELS 3 Zrotation Xrotation Yrotation
            End Site
            {
              OFFSET 0.0001 18.9506 0.5657
            }
          }
        }
        JOINT LeftShoulder
        {
          OFFSET 2.2086 21.1115 7.2329
          CHANNELS 3 Zrotation Xrotation Yrotation
          JOINT LeftArm
          {
            OFFSET 13.1193 3.0282 -4.8998
            CHANNELS 3 Zrotation Xrotation Yrotation
            JOINT LeftForeArm
            {
              OFFSET 27.4081 -0.0973053 -0.2375
              CHANNELS 3 Zrotation Xrotation Yrotation
              JOINT LeftHand
              {
                OFFSET 22.8641 0.0662994 -0.1369
                CHANNELS 3 Zrotation Xrotation Yrotation
                JOINT LeftHandIndex1
                {
                  OFFSET 8.8614 0.775009 2.4612
                  CHANNELS 3 Zrotation Xrotation Yrotation
                  JOINT LeftHandIndex2
                  {
                    OFFSET 3.3146 -0.808304 0.5841
                    CHANNELS 3 Zrotation Xrotation Yrotation
                    JOINT LeftHandIndex3
                    {
                      OFFSET 2.2628 -0.552002 0.3989
                      CHANNELS 3 Zrotation Xrotation Yrotation
                      End Site
                      {
                        OFFSET 1.6102 -0.4807 0.2612
                      }
                    }
                  }
                }
                JOINT LeftHandMiddle1
                {
                  OFFSET 8.9937 0.895004 0.2143
                  CHANNELS 3 Zrotation Xrotation Yrotation
                  JOINT LeftHandMiddle2
                  {
                    OFFSET 4.0984 0.0113983 -0.0242
                    CHANNELS 3 Zrotation Xrotation Yrotation
                    JOINT LeftHandMiddle3
                    {
                      OFFSET 2.2716 0.00689697 -0.0138001
                      CHANNELS 3 Zrotation Xrotation Yrotation
                      End Site
                      {
                        OFFSET 2.0404 -0.1441 0.0027
                      }
                    }
                  }
                }
                JOINT LeftHandRing1
                {
                  OFFSET 8.5234 0.597198 -2.0164
                  CHANNELS 3 Zrotation Xrotation Yrotation
                  JOINT LeftHandRing2
                  {
                    OFFSET 3.7188 -0.188293 -0.2328
                    CHANNELS 3 Zrotation Xrotation Yrotation
                    JOINT LeftHandRing3
                    {
                      OFFSET 2.1191 -0.106598 -0.1332
                      CHANNELS 3 Zrotation Xrotation Yrotation
                      End Site
                      {
                        OFFSET 1.8737 -0.2304 -0.0886
                      }
                    }
                  }
                }
                JOINT LeftHandPinky1
                {
                  OFFSET 7.9094 -0.601089 -3.4825
                  CHANNELS 3 Zrotation Xrotation Yrotation
                  JOINT LeftHandPinky2
                  {
                    OFFSET 2.2874 -0.477005 -0.6314
                    CHANNELS 3 Zrotation Xrotation Yrotation
                    JOINT LeftHandPinky3
                    {
                      OFFSET 1.6774 -0.349396 -0.4633
                      CHANNELS 3 Zrotation Xrotation Yrotation
                      End Site
                      {
                        OFFSET 1.4888 -0.4091 -0.3416
                      }
                    }
                  }
                }
                JOINT LeftHandThumb1
                {
                  OFFSET 1.833 -1.3875 1.3896
                  CHANNELS 3 Zrotation Xrotation Yrotation
                  JOINT LeftHandThumb2
                  {
                    OFFSET 3.4129 -1.121 2.5732
                    CHANNELS 3 Zrotation Xrotation Yrotation
                    JOINT LeftHandThumb3
                    {
                      OFFSET 2.2474 -0.804199 1.6192
                      CHANNELS 3 Zrotation Xrotation Yrotation
                      End Site
                      {
                        OFFSET 1.6527 -0.5689 1.1317
                      }
                    }
                  }
                }
              }
            }
          }
        }
        JOINT RightShoulder
        {
          OFFSET -2.2086 21.1115 7.2329
          CHANNELS 3 Zrotation Xrotation Yrotation
          JOINT RightArm
          {
            OFFSET -13.1216 3.0287 -4.9007
            CHANNELS 3 Zrotation Xrotation Yrotation
            JOINT RightForeArm
            {
              OFFSET -27.4081 -0.0973053 -0.2375
              CHANNELS 3 Zrotation Xrotation Yrotation
              JOINT RightHand
              {
                OFFSET -22.8641 0.0664063 -0.1369
                CHANNELS 3 Zrotation Xrotation Yrotation
                JOINT RightHandIndex1
                {
                  OFFSET -8.8614 0.774994 2.4612
                  CHANNELS 3 Zrotation Xrotation Yrotation
                  JOINT RightHandIndex2
                  {
                    OFFSET -3.3146 -0.808304 0.5841
                    CHANNELS 3 Zrotation Xrotation Yrotation
                    JOINT RightHandIndex3
                    {
                      OFFSET -2.2628 -0.552002 0.3989
                      CHANNELS 3 Zrotation Xrotation Yrotation
                      End Site
                      {
                        OFFSET -1.6102 -0.4807 0.2612
                      }
                    }
                  }
                }
                JOINT RightHandMiddle1
                {
                  OFFSET -8.9937 0.894989 0.2143
                  CHANNELS 3 Zrotation Xrotation Yrotation
                  JOINT RightHandMiddle2
                  {
                    OFFSET -4.0984 0.0113983 -0.0242
                    CHANNELS 3 Zrotation Xrotation Yrotation
                    JOINT RightHandMiddle3
                    {
                      OFFSET -2.2716 0.00691223 -0.0138001
                      CHANNELS 3 Zrotation Xrotation Yrotation
                      End Site
                      {
                        OFFSET -2.0404 -0.1441 0.0027
                      }
                    }
                  }
                }
                JOINT RightHandRing1
                {
                  OFFSET -8.5234 0.597198 -2.0164
                  CHANNELS 3 Zrotation Xrotation Yrotation
                  JOINT RightHandRing2
                  {
                    OFFSET -3.7188 -0.188309 -0.2328
                    CHANNELS 3 Zrotation Xrotation Yrotation
                    JOINT RightHandRing3
                    {
                      OFFSET -2.1191 -0.106598 -0.1332
                      CHANNELS 3 Zrotation Xrotation Yrotation
                      End Site
                      {
                        OFFSET -1.8737 -0.2304 -0.0886
                      }
                    }
                  }
                }
                JOINT RightHandPinky1
                {
                  OFFSET -7.9094 -0.601105 -3.4825
                  CHANNELS 3 Zrotation Xrotation Yrotation
                  JOINT RightHandPinky2
                  {
                    OFFSET -2.2874 -0.477005 -0.6314
                    CHANNELS 3 Zrotation Xrotation Yrotation
                    JOINT RightHandPinky3
                    {
                      OFFSET -1.6774 -0.349396 -0.4633
                      CHANNELS 3 Zrotation Xrotation Yrotation
                      End Site
                      {
                        OFFSET -1.4888 -0.4091 -0.3416
                      }
                    }
                  }
                }
                JOINT RightHandThumb1
                {
                  OFFSET -1.833 -1.38751 1.3896
                  CHANNELS 3 Zrotation Xrotation Yrotation
                  JOINT RightHandThumb2
                  {
                    OFFSET -3.41299 -1.12099 2.5732
                    CHANNELS 3 Zrotation Xrotation Yrotation
                    JOINT RightHandThumb3
                    {
                      OFFSET -2.24741 -0.804108 1.6192
                      CHANNELS 3 Zrotation Xrotation Yrotation
                      End Site
                      {
                        OFFSET -1.6527 -0.5689 1.1317
                      }
                    }
                  }
                }
              }
            }
          }
        }
      }
    }
  }
  JOINT RightUpLeg
  {
    OFFSET -9.1966 3.8861 -0.7581
    CHANNELS 3 Zrotation Xrotation Yrotation
    JOINT RightLeg
    {
      OFFSET -0.7359 -41.0265 0
      CHANNELS 3 Zrotation Xrotation Yrotation
      JOINT RightFoot
      {
        OFFSET 0 -40.2855 0
        CHANNELS 3 Zrotation Xrotation Yrotation
        JOINT RightToeBase
        {
          OFFSET 0 -5.6122 11.7359
          CHANNELS 3 Zrotation Xrotation Yrotation
          End Site
          {
            OFFSET 0 0 7.8731
          }
        }
      }
    }
  }
  JOINT LeftUpLeg
  {
    OFFSET 9.1965 3.8864 -0.7581
    CHANNELS 3 Zrotation Xrotation Yrotation
    JOINT LeftLeg
    {
      OFFSET 0.7359 -41.0268 0
      CHANNELS 3 Zrotation Xrotation Yrotation
      JOINT LeftFoot
      {
        OFFSET 0 -40.2855 0
        CHANNELS 3 Zrotation Xrotation Yrotation
        JOINT LeftToeBase
        {
          OFFSET 0 -5.6122 11.7359
          CHANNELS 3 Zrotation Xrotation Yrotation
          End Site
          {
            OFFSET 0 0 7.8731
          }
        }
      }
    }
  }
}
MOTION
Frames:	4
Frame Time:	0.0333333
-60.2455 4.42105 -0.44483 -90 1.98785e-016 3.50023 0.0552959 -1.85893 -0.250221 0.102505 -3.71808 -0.499042 0.102526 -3.71808 -0.499041 9.3508e-006 18.3858 1.667e-006 -1.44788e-005 -33.9054 -6.63729e-006 -17.054 1.39308 27.7657 0.0491713 0.000878056 -80.1147 -21.2619 -1.33232 -69.6241 -16.6458 -49.1957 -8.08131 -1.09794e-006 -1.07646e-006 1.79829e-007 1.09794e-006 1.07646e-006 -1.79829e-007 -1.09794e-006 -1.07646e-006 1.79829e-007 -1.09794e-006 -1.07646e-006 1.79829e-007 -0.0146069 -8.74106e-005 2.04674e-006 -9.54166e-015 3.97569e-015 -1.59028e-015 -1.09794e-006 -1.07646e-006 1.79829e-007 -0.0187574 -0.0011803 6.00308e-005 6.36111e-015 2.38542e-015 -0 -1.09794e-006 -1.07646e-006 1.79829e-007 -0.0122854 -0.00325169 0.000676431 -3.18055e-015 -1.03368e-014 -3.18055e-015 -1.09794e-006 -1.07646e-006 1.79829e-007 1.09794e-006 1.07646e-006 -1.79829e-007 -1.09794e-006 -1.07646e-006 1.79829e-007 15.9847 -1.64478 -32.0961 -0.229879 -0.138316 78.102 19.9738 -4.11673 61.9152 37.1569 -44.4849 25.7332 6.36111e-015 -1.59028e-015 -0 1.59028e-014 -1.59028e-015 7.95139e-016 1.27222e-014 3.97569e-015 7.95139e-016 6.36111e-015 -1.59028e-015 -0 0.0149863 -9.21785e-005 -2.58212e-006 3.18055e-015 0 -7.95139e-016 6.36111e-015 -1.59028e-015 -0 0.0190062 -0.00118834 -5.82077e-005 3.18055e-015 0 -0 6.36111e-015 -1.59028e-015 -0 0.0121851 -0.00322451 -0.000667623 -3.18055e-015 7.95139e-016 7.95139e-016 6.36111e-015 -1.59028e-015 -0 1.59028e-014 -1.59028e-015 7.95139e-016 1.27222e-014 3.97569e-015 7.95139e-016 -100.233 -19.302 -71.3428 104.301 7.76775 -83.2512 -14.4832 40.6858 37.2688 -4.14991e-008 -2.25561e-007 -9.92727e-007 -48.446 -87.9503 -57.8968 -59.3418 74.6136 73.3776 20.9222 20.3735 -27.2482 7.95139e-016 0 -0 
-59.7458 4.79396 -1.35867 -90 1.98785e-016 3.50023 0.0538304 -1.57677 -0.251032 0.100817 -3.15378 -0.50087 0.100788 -3.15378 -0.500872 -2.38504e-006 21.7473 -1.65126e-005 -7.79908e-007 -38.5335 -2.81962e-006 -16.9429 0.979231 25.7707 0.0735807 0.0828749 -79.4666 -20.7941 -2.48141 -66.4717 -19.3089 -48.1626 -11.5974 -2.20695e-032 -1.59028e-015 -7.95139e-016 -1.05189e-006 -1.19571e-006 -5.22013e-007 -2.10378e-006 -2.39141e-006 -1.04403e-006 -2.20695e-032 -1.59028e-015 -7.95139e-016 -0.0146064 -8.79447e-005 -2.28543e-006 -2.1037e-006 -2.39128e-006 -1.04433e-006 -2.20695e-032 -1.59028e-015 -7.95139e-016 -0.0187601 -0.0011772 6.14781e-005 -2.10369e-006 -2.39123e-006 -1.0444e-006 -2.20695e-032 -1.59028e-015 -7.95139e-016 -0.0122815 -0.00325349 0.000673692 -2.10376e-006 -2.39127e-006 -1.04423e-006 -2.20695e-032 -1.59028e-015 -7.95139e-016 -1.05189e-006 -1.19571e-006 -5.22013e-007 -2.10378e-006 -2.39141e-006 -1.04403e-006 16.0197 -1.78206 -29.6852 -0.23604 -0.0419571 77.6508 19.5084 -4.93549 59.4729 37.263 -43.5263 26.9737 6.92705e-007 -1.05322e-006 -2.4025e-007 3.37541e-007 -1.30401e-007 8.00437e-007 6.36111e-015 1.59028e-015 -2.38542e-015 6.92705e-007 -1.05322e-006 -2.4025e-007 0.0149936 -9.13857e-005 1.96204e-006 -3.18055e-015 -1.59028e-015 -7.95139e-016 6.92705e-007 -1.05322e-006 -2.4025e-007 0.0189861 -0.00119091 -5.63623e-005 -3.18055e-015 -3.18055e-015 -3.18055e-015 6.92705e-007 -1.05322e-006 -2.4025e-007 0.0123375 -0.00326987 -0.00068325 -9.54166e-015 -5.56597e-015 -7.95139e-016 6.92705e-007 -1.05322e-006 -2.4025e-007 3.37541e-007 -1.30401e-007 8.00437e-007 6.36111e-015 1.59028e-015 -2.38542e-015 -99.6676 -20.736 -70.9206 103.054 4.06072 -82.3342 -14.2013 40.6005 37.1508 3.17577e-006 -8.54051e-007 7.23398e-007 -28.6595 -87.2462 -38.4315 -52.1566 73.0054 66.4546 21.3875 21.6987 -27.9933 -2.64469e-007 -4.54546e-007 1.82118e-006 
-59.2731 5.14157 -2.22324 -90 1.98785e-016 3.50023 0.0524481 -1.31025 -0.251773 0.0991868 -2.62073 -0.502543 0.0991633 -2.62073 -0.502543 -3.09653e-005 24.9404 5.04535e-005 -6.8734e-006 -42.9588 -6.64032e-006 -16.8508 0.584787 23.8845 0.0958064 0.160272 -78.8551 -20.293 -3.54043 -63.4635 -21.6914 -47.088 -14.7931 -3.18055e-015 -2.38542e-015 2.38542e-015 2.17975e-006 1.04086e-006 -5.62875e-006 -1.09968e-006 -1.06046e-006 1.89435e-007 -3.18055e-015 -2.38542e-015 2.38542e-015 -0.0145797 -8.81624e-005 -6.4869e-008 -3.18055e-015 0 -5.56597e-015 -3.18055e-015 -2.38542e-015 2.38542e-015 -0.0187834 -0.00118092 7.15514e-005 2.22639e-014 7.95139e-016 2.38542e-015 -3.18055e-015 -2.38542e-015 2.38542e-015 -0.0122361 -0.00324375 0.000675285 -6.36111e-015 -1.59028e-015 -1.59028e-015 -3.18055e-015 -2.38542e-015 2.38542e-015 2.17975e-006 1.04086e-006 -5.62875e-006 -1.09968e-006 -1.06046e-006 1.89435e-007 16.0581 -1.91044 -27.4021 -0.241186 0.0488443 77.2251 19.0354 -5.69013 57.1495 37.3361 -42.6194 28.126 3.31043e-032 2.38542e-015 -7.95139e-016 2.20695e-032 1.59028e-015 -7.95139e-016 3.18055e-015 1.59028e-015 -2.38542e-015 3.31043e-032 2.38542e-015 -7.95139e-016 0.0150016 -8.95757e-005 1.71445e-006 -4.41391e-032 -1.59028e-015 -1.59028e-015 3.31043e-032 2.38542e-015 -7.95139e-016 0.0190264 -0.00118774 -6.16569e-005 -6.91577e-007 1.05052e-006 2.41993e-007 3.31043e-032 2.38542e-015 -7.95139e-016 0.0122469 -0.00323919 -0.000666351 6.36111e-015 -2.38542e-015 7.95139e-016 3.31043e-032 2.38542e-015 -7.95139e-016 2.20695e-032 1.59028e-015 -7.95139e-016 3.18055e-015 1.59028e-015 -2.38542e-015 -99.0575 -22.0896 -70.5701 100.979 1.53783 -81.6921 -14.0175 40.5284 37.0719 1.36389e-008 9.99445e-008 3.48302e-008 -18.1252 -86.4053 -28.1959 -46.5241 71.287 61.078 21.853 22.9438 -28.7155 1.43318e-007 -6.37401e-007 -5.46315e-007 
-58.7995 5.48792 -3.08756 -90 1.98785e-016 3.50023 0.0510685 -1.04349 -0.25248 0.0975763 -2.08719 -0.504156 0.0975601 -2.08719 -0.504155 -5.13138e-006 28.1495 -3.11135e-006 -4.70271e-006 -47.4267 -3.36154e-006 -16.7716 0.186756 21.9956 0.117169 0.237917 -78.2435 -19.7334 -4.57578 -60.4269 -23.9419 -45.924 -17.8653 -1.05197e-006 -1.19605e-006 -5.20317e-007 -4.93817e-008 1.40032e-007 7.12728e-007 -1.05197e-006 -1.19605e-006 -5.20317e-007 -1.05197e-006 -1.19605e-006 -5.20317e-007 -0.0145879 -8.83482e-005 -2.75978e-006 -1.05193e-006 -1.19598e-006 -5.20469e-007 -1.05197e-006 -1.19605e-006 -5.20317e-007 -0.0187994 -0.00118368 5.94287e-005 -1.05192e-006 -1.19596e-006 -5.20503e-007 -1.05197e-006 -1.19605e-006 -5.20317e-007 -0.0122813 -0.0032472 0.000671868 -1.05195e-006 -1.19598e-006 -5.20417e-007 -1.05197e-006 -1.19605e-006 -5.20317e-007 -4.93817e-008 1.40032e-007 7.12728e-007 -1.05197e-006 -1.19605e-006 -5.20317e-007 16.1017 -2.03758 -25.113 -0.245662 0.13968 76.7993 18.53 -6.42693 54.81 37.3839 -41.7106 29.2614 1.27222e-014 -1.03368e-014 -0 1.27222e-014 -1.19271e-014 -0 9.54166e-015 -1.35174e-014 7.95139e-016 1.27222e-014 -1.03368e-014 -0 0.0150094 -9.07129e-005 -7.55305e-007 9.54166e-015 7.95139e-016 1.59028e-015 1.27222e-014 -1.03368e-014 -0 0.019057 -0.00119214 -5.54147e-005 6.92202e-007 -1.04869e-006 -2.43412e-007 1.27222e-014 -1.03368e-014 -0 0.0123083 -0.00325564 -0.000672871 3.18055e-015 0 -7.95139e-016 1.27222e-014 -1.03368e-014 -0 1.27222e-014 -1.19271e-014 -0 9.54166e-015 -1.35174e-014 7.95139e-016 -98.7535 -23.5464 -70.8038 98.6495 0.331227 -79.8062 -11.9876 40.8308 34.6023 -3.03657e-008 -1.99772e-007 -6.85854e-008 -11.6678 -85.4895 -22.0346 -41.8323 69.4244 56.6485 22.3422 24.1801 -29.4564 8.91727e-007 -7.40716e-007 -4.80528e-007 
